<svg width="1440" height="1024" viewBox="0 0 1440 1024" fill="none" xmlns="http://www.w3.org/2000/svg">
<g clip-path="url(#clip0_316_42)">
<path fill-rule="evenodd" clip-rule="evenodd" d="M155 -366.59L337.081 -464L715.372 412.594L651 -151H857.5L778.173 416.528L1066.21 -121L1237.28 -5.3515L830.875 458.317C832.053 459.038 833.195 459.774 834.298 460.525L1460.96 121.024L1541.56 311.146L859.446 510.412L1547.32 526.235L1522.9 731.286L840.513 567.711L1561.22 1027.03L1437.36 1192.26L761.365 579.847L1013.12 1138.63L816.812 1202.7L701.485 581.844L590.882 1182.69L393 1123.65L652.535 545.105L-128.337 1193.01L-249 1025.44L605.926 512.723L-385.192 687.312L-407 481.967L594.309 459.964L-280 60.5048L-181.52 -121L651.728 426.061L155 -366.59ZM709.52 543.238L708.532 543.56L708.619 543.089C708.919 543.14 709.219 543.189 709.52 543.238ZM746.112 545.994L746.313 546.44L746.65 545.99C746.471 545.992 746.292 545.993 746.112 545.994Z" fill="#271C91" fill-opacity="0.2"/>
</g>
<defs>
<clipPath id="clip0_316_42">
<rect width="1440" height="1024" fill="white"/>
</clipPath>
</defs>
</svg>
